#Comment line ignore any data following # character 
#Hierarchical Translation and Rotation (.htr) file 
[Header]	
#Header keywords are followed by a single value 
FileType HTR		#Single word string
DataType HTRS		#Translation followed by rotation and scale data
FileVersion 1		#integer
NumSegments 84		#integer
NumFrames 2		#integer
DataFrameRate 30		#integer, data frame rate in this file
EulerRotationOrder ZYX
CalibrationUnits mm
RotationUnits Degrees
GlobalAxisofGravity Y
BoneLengthAxis Y
ScaleFactor 1.00
[SegmentNames&Hierarchy]
#CHILD	PARENT
MASTER GLOBAL
root MASTER
chest root
L_mid_tent01 root
R_mid_tent01 root
spine01 root
Bip01_Neck chest
L_humerus chest
R_humerus chest
weapon_bone chest
Bip01_Head Bip01_Neck
eye_left_bone Bip01_Head
eye_right_bone Bip01_Head
L_forearm L_humerus
L_front_hand L_forearm
L_weapon_bone L_forearm
L_front_hand01_01 L_front_hand
L_front_hand02_01 L_front_hand
L_front_hand03_01 L_front_hand
L_front_hand01_02 L_front_hand01_01
L_front_hand02_02 L_front_hand02_01
L_front_hand03_02 L_front_hand03_01
R_forearm R_humerus
R_front_hand R_forearm
R_weapon_bone R_forearm
R_front_hand01_01 R_front_hand
R_front_hand02_01 R_front_hand
R_front_hand03_01 R_front_hand
R_front_hand01_02 R_front_hand01_01
R_front_hand02_02 R_front_hand02_01
R_front_hand03_02 R_front_hand03_01
null_rope01_connect L_mid_tent01
Rope1_Seg01 null_rope01_connect
Rope1_Seg02 Rope1_Seg01
Rope1_Seg03 Rope1_Seg02
Rope1_Seg04 Rope1_Seg03
Rope1_Seg05 Rope1_Seg04
Rope1_Seg06 Rope1_Seg05
Rope1_Seg07 Rope1_Seg06
Rope1_Seg09 Rope1_Seg07
L_mid_hand01 Rope1_Seg09
L_mid_hand02 Rope1_Seg09
L_mid_hand03 Rope1_Seg09
null_rope02_connect R_mid_tent01
Rope2_Seg01 null_rope02_connect
Rope2_Seg02 Rope2_Seg01
Rope2_Seg03 Rope2_Seg02
Rope2_Seg04 Rope2_Seg03
Rope2_Seg05 Rope2_Seg04
Rope2_Seg06 Rope2_Seg05
Rope2_Seg07 Rope2_Seg06
Rope2_Seg09 Rope2_Seg07
R_mid_hand01 Rope2_Seg09
R_mid_hand02 Rope2_Seg09
R_mid_hand03 Rope2_Seg09
spine02 spine01
spine03 spine02
pelvis spine03
null_rope03_connect pelvis
null_rope04_connect pelvis
Rope3_Seg01 null_rope03_connect
Rope3_Seg02 Rope3_Seg01
Rope3_Seg03 Rope3_Seg02
Rope3_Seg04 Rope3_Seg03
Rope3_Seg05 Rope3_Seg04
Rope3_Seg06 Rope3_Seg05
Rope3_Seg07 Rope3_Seg06
Rope3_Seg08 Rope3_Seg07
Rope3_Seg09 Rope3_Seg08
R_rear_hand01 Rope3_Seg09
R_rear_hand02 Rope3_Seg09
R_rear_hand03 Rope3_Seg09
Rope4_Seg01 null_rope04_connect
Rope4_Seg02 Rope4_Seg01
Rope4_Seg03 Rope4_Seg02
Rope4_Seg04 Rope4_Seg03
Rope4_Seg05 Rope4_Seg04
Rope4_Seg06 Rope4_Seg05
Rope4_Seg07 Rope4_Seg06
Rope4_Seg08 Rope4_Seg07
Rope4_Seg09 Rope4_Seg08
L_rear_hand01 Rope4_Seg09
L_rear_hand02 Rope4_Seg09
L_rear_hand03 Rope4_Seg09
[BasePosition]
#SegmentName Tx, Ty, Tz, Rx, Ry, Rz, BoneLength
MASTER 0.000000 0.000000 0.000000 -90.000000 0.000000 0.000000 10.000000 
root 0.000000 0.000000 0.000000 0.000000 0.000000 0.000000 10.000000 
chest 0.000000 0.000000 0.000000 0.000000 0.000000 0.000000 10.000000 
L_mid_tent01 0.000000 0.000000 0.000000 0.000000 0.000000 0.000000 10.000000 
R_mid_tent01 0.000000 0.000000 0.000000 0.000000 0.000000 0.000000 10.000000 
spine01 0.000000 0.000000 0.000000 0.000000 0.000000 0.000000 10.000000 
Bip01_Neck 0.000000 0.000000 0.000000 0.000000 0.000000 0.000000 10.000000 
L_humerus 0.000000 0.000000 0.000000 0.000000 0.000000 0.000000 10.000000 
R_humerus 0.000000 0.000000 0.000000 0.000000 0.000000 0.000000 10.000000 
weapon_bone 0.000000 0.000000 0.000000 0.000000 0.000000 0.000000 10.000000 
Bip01_Head 0.000000 0.000000 0.000000 0.000000 0.000000 0.000000 10.000000 
eye_left_bone 0.000000 0.000000 0.000000 0.000000 0.000000 0.000000 10.000000 
eye_right_bone 0.000000 0.000000 0.000000 0.000000 0.000000 0.000000 10.000000 
L_forearm 0.000000 0.000000 0.000000 0.000000 0.000000 0.000000 10.000000 
L_front_hand 0.000000 0.000000 0.000000 0.000000 0.000000 0.000000 10.000000 
L_weapon_bone 0.000000 0.000000 0.000000 0.000000 0.000000 0.000000 10.000000 
L_front_hand01_01 0.000000 0.000000 0.000000 0.000000 0.000000 0.000000 10.000000 
L_front_hand02_01 0.000000 0.000000 0.000000 0.000000 0.000000 0.000000 10.000000 
L_front_hand03_01 0.000000 0.000000 0.000000 0.000000 0.000000 0.000000 10.000000 
L_front_hand01_02 0.000000 0.000000 0.000000 0.000000 0.000000 0.000000 10.000000 
L_front_hand02_02 0.000000 0.000000 0.000000 0.000000 0.000000 0.000000 10.000000 
L_front_hand03_02 0.000000 0.000000 0.000000 0.000000 0.000000 0.000000 10.000000 
R_forearm 0.000000 0.000000 0.000000 0.000000 0.000000 0.000000 10.000000 
R_front_hand 0.000000 0.000000 0.000000 0.000000 0.000000 0.000000 10.000000 
R_weapon_bone 0.000000 0.000000 0.000000 0.000000 0.000000 0.000000 10.000000 
R_front_hand01_01 0.000000 0.000000 0.000000 0.000000 0.000000 0.000000 10.000000 
R_front_hand02_01 0.000000 0.000000 0.000000 0.000000 0.000000 0.000000 10.000000 
R_front_hand03_01 0.000000 0.000000 0.000000 0.000000 0.000000 0.000000 10.000000 
R_front_hand01_02 0.000000 0.000000 0.000000 0.000000 0.000000 0.000000 10.000000 
R_front_hand02_02 0.000000 0.000000 0.000000 0.000000 0.000000 0.000000 10.000000 
R_front_hand03_02 0.000000 0.000000 0.000000 0.000000 0.000000 0.000000 10.000000 
null_rope01_connect 0.000000 0.000000 0.000000 0.000000 0.000000 0.000000 10.000000 
Rope1_Seg01 0.000000 0.000000 0.000000 0.000000 0.000000 0.000000 10.000000 
Rope1_Seg02 0.000000 0.000000 0.000000 0.000000 0.000000 0.000000 10.000000 
Rope1_Seg03 0.000000 0.000000 0.000000 0.000000 0.000000 0.000000 10.000000 
Rope1_Seg04 0.000000 0.000000 0.000000 0.000000 0.000000 0.000000 10.000000 
Rope1_Seg05 0.000000 0.000000 0.000000 0.000000 0.000000 0.000000 10.000000 
Rope1_Seg06 0.000000 0.000000 0.000000 0.000000 0.000000 0.000000 10.000000 
Rope1_Seg07 0.000000 0.000000 0.000000 0.000000 0.000000 0.000000 10.000000 
Rope1_Seg09 0.000000 0.000000 0.000000 0.000000 0.000000 0.000000 10.000000 
L_mid_hand01 0.000000 0.000000 0.000000 0.000000 0.000000 0.000000 10.000000 
L_mid_hand02 0.000000 0.000000 0.000000 0.000000 0.000000 0.000000 10.000000 
L_mid_hand03 0.000000 0.000000 0.000000 0.000000 0.000000 0.000000 10.000000 
null_rope02_connect 0.000000 0.000000 0.000000 0.000000 0.000000 0.000000 10.000000 
Rope2_Seg01 0.000000 0.000000 0.000000 0.000000 0.000000 0.000000 10.000000 
Rope2_Seg02 0.000000 0.000000 0.000000 0.000000 0.000000 0.000000 10.000000 
Rope2_Seg03 0.000000 0.000000 0.000000 0.000000 0.000000 0.000000 10.000000 
Rope2_Seg04 0.000000 0.000000 0.000000 0.000000 0.000000 0.000000 10.000000 
Rope2_Seg05 0.000000 0.000000 0.000000 0.000000 0.000000 0.000000 10.000000 
Rope2_Seg06 0.000000 0.000000 0.000000 0.000000 0.000000 0.000000 10.000000 
Rope2_Seg07 0.000000 0.000000 0.000000 0.000000 0.000000 0.000000 10.000000 
Rope2_Seg09 0.000000 0.000000 0.000000 0.000000 0.000000 0.000000 10.000000 
R_mid_hand01 0.000000 0.000000 0.000000 0.000000 0.000000 0.000000 10.000000 
R_mid_hand02 0.000000 0.000000 0.000000 0.000000 0.000000 0.000000 10.000000 
R_mid_hand03 0.000000 0.000000 0.000000 0.000000 0.000000 0.000000 10.000000 
spine02 0.000000 0.000000 0.000000 0.000000 0.000000 0.000000 10.000000 
spine03 0.000000 0.000000 0.000000 0.000000 0.000000 0.000000 10.000000 
pelvis 0.000000 0.000000 0.000000 0.000000 0.000000 0.000000 10.000000 
null_rope03_connect 0.000000 0.000000 0.000000 0.000000 0.000000 0.000000 10.000000 
null_rope04_connect 0.000000 0.000000 0.000000 0.000000 0.000000 0.000000 10.000000 
Rope3_Seg01 0.000000 0.000000 0.000000 0.000000 0.000000 0.000000 10.000000 
Rope3_Seg02 0.000000 0.000000 0.000000 0.000000 0.000000 0.000000 10.000000 
Rope3_Seg03 0.000000 0.000000 0.000000 0.000000 0.000000 0.000000 10.000000 
Rope3_Seg04 0.000000 0.000000 0.000000 0.000000 0.000000 0.000000 10.000000 
Rope3_Seg05 0.000000 0.000000 0.000000 0.000000 0.000000 0.000000 10.000000 
Rope3_Seg06 0.000000 0.000000 0.000000 0.000000 0.000000 0.000000 10.000000 
Rope3_Seg07 0.000000 0.000000 0.000000 0.000000 0.000000 0.000000 10.000000 
Rope3_Seg08 0.000000 0.000000 0.000000 0.000000 0.000000 0.000000 10.000000 
Rope3_Seg09 0.000000 0.000000 0.000000 0.000000 0.000000 0.000000 10.000000 
R_rear_hand01 0.000000 0.000000 0.000000 0.000000 0.000000 0.000000 10.000000 
R_rear_hand02 0.000000 0.000000 0.000000 0.000000 0.000000 0.000000 10.000000 
R_rear_hand03 0.000000 0.000000 0.000000 0.000000 0.000000 0.000000 10.000000 
Rope4_Seg01 0.000000 0.000000 0.000000 0.000000 0.000000 0.000000 10.000000 
Rope4_Seg02 0.000000 0.000000 0.000000 0.000000 0.000000 0.000000 10.000000 
Rope4_Seg03 0.000000 0.000000 0.000000 0.000000 0.000000 0.000000 10.000000 
Rope4_Seg04 0.000000 0.000000 0.000000 0.000000 0.000000 0.000000 10.000000 
Rope4_Seg05 0.000000 0.000000 0.000000 0.000000 0.000000 0.000000 10.000000 
Rope4_Seg06 0.000000 0.000000 0.000000 0.000000 0.000000 0.000000 10.000000 
Rope4_Seg07 0.000000 0.000000 0.000000 0.000000 0.000000 0.000000 10.000000 
Rope4_Seg08 0.000000 0.000000 0.000000 0.000000 0.000000 0.000000 10.000000 
Rope4_Seg09 0.000000 0.000000 0.000000 0.000000 0.000000 0.000000 10.000000 
L_rear_hand01 0.000000 0.000000 0.000000 0.000000 0.000000 0.000000 10.000000 
L_rear_hand02 0.000000 0.000000 0.000000 0.000000 0.000000 0.000000 10.000000 
L_rear_hand03 0.000000 0.000000 0.000000 0.000000 0.000000 0.000000 10.000000 
#Beginning of Data. Separated by tabs
#Fr	Tx	Ty	Tz	Rx	Ry	Rz	SF
[MASTER]
49 0.000000 0.000000 0.000000 0.000000 -0.002347 -90.000000 0.000000
50 0.000000 0.000000 0.000000 0.000000 -0.002347 -90.000000 0.000000
[root]
49 -14.348907 -31.560444 472.594574 -88.582214 -10.448833 179.361130 473.864502
50 -14.348906 -44.754547 472.594574 -88.582230 -10.448834 179.361130 474.925781
[chest]
49 -84.512650 -34.090519 0.000000 4.338318 3.746507 -179.369476 91.129311
50 -84.512650 -34.090519 0.000000 4.771632 3.751525 -179.295547 91.129311
[L_mid_tent01]
49 27.299511 22.177458 -249.918259 -63.657536 18.686338 33.262241 252.381134
50 27.299511 22.177458 -249.918259 -63.657536 18.686338 33.262241 252.381134
[R_mid_tent01]
49 23.228794 24.509907 226.238495 -131.259216 -15.836094 39.582561 228.744751
50 23.228794 24.509907 226.238495 -131.259216 -15.836094 39.582561 228.744751
[spine01]
49 -0.361383 -0.195265 0.000000 0.001845 0.001451 13.654368 0.410763
50 -0.361383 -0.195265 0.000000 0.001845 0.001451 13.654368 0.410763
[Bip01_Neck]
49 165.484543 71.581718 0.000119 176.643677 -1.657967 43.431911 180.302734
50 165.484543 71.581718 0.000119 176.643677 -1.657967 43.431911 180.302734
[L_humerus]
49 -13.983130 -135.272980 -120.471481 157.476303 14.153152 -121.715378 181.680161
50 -13.983130 -135.272980 -120.471481 158.869461 12.528557 -120.993225 181.680161
[R_humerus]
49 -13.983309 -135.273102 125.287651 -160.503830 -9.754984 -124.904228 184.909012
50 -13.983309 -135.273102 125.287651 -162.038681 -8.329873 -124.132706 184.909012
[weapon_bone]
49 235.964890 -300.705902 0.000000 0.000000 -89.951546 -128.212341 382.234833
50 235.964890 -300.705902 0.000000 0.000000 -89.951546 -128.212341 382.234833
[Bip01_Head]
49 128.171936 128.412292 8.333418 1.938589 3.724703 -19.795942 181.623810
50 128.171936 128.412292 8.333418 1.938589 3.724703 -19.795942 181.623810
[eye_left_bone]
49 -24.626970 125.451866 -64.772606 0.000000 -90.000000 -99.840431 143.318359
50 -24.626970 125.451866 -64.772606 0.000000 -90.000000 -99.840431 143.318359
[eye_right_bone]
49 -24.626970 125.451866 64.327362 0.000000 -89.965736 80.156380 143.117676
50 -24.626970 125.451866 64.327362 0.000000 -89.965736 80.156380 143.117676
[L_forearm]
49 322.776093 0.000000 -0.000119 0.000643 -0.002257 -121.787163 322.776093
50 322.776093 0.000000 -0.000119 0.000698 -0.002241 -124.598488 322.776093
[L_front_hand]
49 241.149185 -0.042021 -3.300071 110.181580 -1.836827 -27.422670 241.171753
50 241.149185 -0.042021 -3.300071 109.831673 -1.833354 -27.423317 241.171753
[L_weapon_bone]
49 156.183838 0.000000 0.000000 0.000014 0.000007 0.000001 156.183838
50 156.183838 0.000000 0.000000 0.000014 0.000007 0.000001 156.183838
[L_front_hand01_01]
49 86.095154 20.947098 -0.655860 -0.366594 -0.477154 75.385574 88.609184
50 86.095154 20.947098 -0.655860 -0.366594 -0.477154 75.385574 88.609184
[L_front_hand02_01]
49 86.935165 -11.437475 24.513514 154.399796 -59.883835 -61.369587 91.046425
50 86.935165 -11.437475 24.513514 154.399796 -59.883835 -61.369587 91.046425
[L_front_hand03_01]
49 86.637497 -14.123976 -20.424902 -153.913879 58.118130 -62.702892 90.126129
50 86.637497 -14.123976 -20.424902 -153.913849 58.118122 -62.702866 90.126129
[L_front_hand01_02]
49 71.020905 -0.000179 0.000030 0.000334 -0.002323 -106.379684 71.020905
50 71.020905 -0.000179 0.000030 0.000334 -0.002323 -106.379684 71.020905
[L_front_hand02_02]
49 71.020927 -0.000119 0.000060 0.000334 -0.002323 -106.379684 71.020927
50 71.020927 -0.000119 0.000060 0.000334 -0.002323 -106.379684 71.020927
[L_front_hand03_02]
49 71.020905 -0.000060 0.000060 0.000334 -0.002323 -106.379684 71.020905
50 71.020905 -0.000060 0.000060 0.000334 -0.002323 -106.379684 71.020905
[R_forearm]
49 322.776428 -0.000060 0.000030 0.192655 0.095306 -117.594101 322.776428
50 322.776428 -0.000060 0.000030 0.186135 0.102158 -120.218544 322.776428
[R_front_hand]
49 238.847015 -0.006795 2.210259 -144.808685 -10.645065 -26.312954 238.857239
50 238.847015 -0.006795 2.210259 -144.463409 -10.644552 -26.311783 238.857239
[R_weapon_bone]
49 155.664093 0.002503 -0.000030 0.003487 0.001180 -90.988930 155.664078
50 155.664093 0.002503 -0.000030 0.003487 0.001180 -90.988930 155.664078
[R_front_hand01_01]
49 87.624611 14.231146 22.918642 -154.633499 -59.950619 61.746044 91.683487
50 87.624611 14.231146 22.918642 -154.633484 -59.950619 61.746037 91.683487
[R_front_hand02_01]
49 89.356956 14.367283 -19.491137 154.602661 58.302849 63.744389 92.579636
50 89.356956 14.367283 -19.491137 154.602661 58.302849 63.744389 92.579636
[R_front_hand03_01]
49 87.286232 -22.307278 -0.143439 0.162155 -0.423168 -75.767921 90.091743
50 87.286232 -22.307278 -0.143439 0.162155 -0.423168 -75.767921 90.091743
[R_front_hand01_02]
49 71.020905 0.000060 0.000119 0.002323 -0.000334 106.381714 71.020905
50 71.020905 0.000060 0.000119 0.002323 -0.000334 106.381714 71.020905
[R_front_hand02_02]
49 71.020844 -0.000030 -0.000119 0.002323 -0.000334 106.381714 71.020836
50 71.020844 -0.000030 -0.000119 0.002323 -0.000334 106.381714 71.020836
[R_front_hand03_02]
49 71.020905 0.000000 0.000030 0.002323 -0.000334 106.381714 71.020905
50 71.020905 0.000000 0.000030 0.002323 -0.000334 106.381714 71.020905
[null_rope01_connect]
49 328.732483 0.000000 -0.000238 -166.231216 26.298847 69.278114 328.732483
50 328.732483 0.000000 -0.000238 -166.231216 26.298845 69.278114 328.732483
[Rope1_Seg01]
49 0.000000 0.000000 0.000000 137.174911 -42.773289 -57.923065 0.000000
50 0.000000 0.000000 0.000000 138.116821 -44.178146 -57.792370 0.000000
[Rope1_Seg02]
49 139.999863 -0.000179 0.000000 -4.117689 -4.683243 -3.307431 139.999863
50 139.999863 -0.000179 0.000000 -3.970090 -4.596614 -3.088296 139.999863
[Rope1_Seg03]
49 139.999924 0.000060 -0.000060 -6.951818 -7.595909 -6.293489 139.999924
50 139.999924 0.000060 -0.000060 -6.805834 -7.523003 -5.903948 139.999924
[Rope1_Seg04]
49 139.999924 -0.000060 -0.000119 -12.102926 -13.942540 -15.225441 139.999924
50 139.999924 -0.000060 -0.000119 -12.282918 -14.079969 -14.449166 139.999924
[Rope1_Seg05]
49 139.999832 0.000119 -0.000060 -10.118332 -17.520582 -33.004040 139.999832
50 139.999832 0.000119 -0.000060 -11.045921 -19.886982 -34.646980 139.999832
[Rope1_Seg06]
49 139.999954 0.000119 -0.000060 -1.993774 -4.102251 -18.921261 139.999954
50 139.999954 0.000119 -0.000060 -2.156212 -3.803526 -19.341476 139.999954
[Rope1_Seg07]
49 139.999985 0.000060 0.000000 0.620639 -0.744001 -17.369333 139.999985
50 139.999985 0.000060 0.000000 -0.009321 2.212863 -13.917876 139.999985
[Rope1_Seg09]
49 121.602913 0.000119 -0.000089 -89.793175 -1.359789 0.847147 121.602913
50 121.602913 0.000119 -0.000089 -89.793175 -1.359789 0.847147 121.602913
[L_mid_hand01]
49 103.859421 1.038730 8.195221 109.056198 -40.604706 -13.201404 104.187431
50 103.859421 1.038730 8.195221 109.056198 -40.604698 -13.201401 104.187431
[L_mid_hand02]
49 105.572853 -4.139662 -10.864139 -146.713593 31.476528 -37.902313 106.211075
50 105.572853 -4.139662 -10.864139 -146.713593 31.476517 -37.902306 106.211075
[L_mid_hand03]
49 104.641464 17.579376 -3.913581 -14.267233 12.322316 43.898396 106.179977
50 104.641464 17.579376 -3.913581 -14.267233 12.322316 43.898396 106.179977
[null_rope02_connect]
49 328.732849 0.000179 -0.000119 -164.342651 -37.938038 110.680077 328.732849
50 328.732849 0.000179 -0.000119 -164.342651 -37.938038 110.680077 328.732849
[Rope2_Seg01]
49 -0.000038 -0.000114 0.000101 -56.697819 -35.174519 -120.256599 0.000158
50 -0.000038 -0.000114 0.000101 -57.079189 -35.838966 -120.013969 0.000158
[Rope2_Seg02]
49 139.999741 -0.000060 -0.000119 2.250440 2.669282 5.117531 139.999756
50 139.999741 -0.000060 -0.000119 2.302525 2.629829 5.160887 139.999756
[Rope2_Seg03]
49 140.000107 0.000030 0.000000 3.806882 4.830810 8.515189 140.000107
50 140.000107 0.000030 0.000000 3.932660 4.804961 8.651462 140.000107
[Rope2_Seg04]
49 139.999802 0.000000 -0.000060 7.501817 10.524933 16.803066 139.999802
50 139.999802 0.000000 -0.000060 7.860765 10.696661 17.246132 139.999802
[Rope2_Seg05]
49 139.999985 -0.000060 0.000119 9.354070 18.169760 24.415556 139.999985
50 139.999985 -0.000060 0.000119 9.761668 18.622267 24.958157 139.999985
[Rope2_Seg06]
49 139.999893 -0.000030 -0.000119 3.722939 20.221725 20.038761 139.999893
50 139.999893 -0.000030 -0.000119 3.768394 19.646841 20.137760 139.999893
[Rope2_Seg07]
49 139.999893 0.000060 -0.000060 -1.404859 19.277185 18.158602 139.999893
50 139.999893 0.000060 -0.000060 -1.065229 18.735588 18.460127 139.999893
[Rope2_Seg09]
49 121.338966 0.000089 -0.000060 33.793236 -1.359788 -0.847141 121.338966
50 121.338966 0.000089 -0.000060 33.793236 -1.359788 -0.847141 121.338966
[R_mid_hand01]
49 104.680779 11.144459 -10.335981 -37.204067 31.906805 37.576252 105.778534
50 104.680779 11.144459 -10.335981 -37.204079 31.906813 37.576260 105.778534
[R_mid_hand02]
49 104.070427 2.443552 8.231699 70.367455 -42.427380 14.067807 104.424065
50 104.070427 2.443552 8.231699 70.367462 -42.427391 14.067809 104.424065
[R_mid_hand03]
49 106.028137 -11.221827 -5.996406 -169.893616 12.226661 -47.211018 106.788818
50 106.028137 -11.221827 -5.996406 -169.893616 12.226658 -47.211018 106.788818
[spine02]
49 129.756927 0.001550 0.000119 -1.023899 -3.926965 6.770993 129.756927
50 129.756927 0.001550 0.000119 -1.023899 -3.926965 6.770993 129.756927
[spine03]
49 78.613846 0.087372 -4.898873 1.040680 4.146419 4.212375 78.766380
50 78.613846 0.087372 -4.898873 1.040680 4.146419 4.212375 78.766380
[pelvis]
49 169.435242 0.051022 0.000000 0.019518 -0.190233 -10.721436 169.435257
50 169.435242 0.051022 0.000000 0.019518 -0.190233 -10.721436 169.435257
[null_rope03_connect]
49 -1.257226 -2.466202 137.391083 21.146282 88.832657 -72.228729 137.418976
50 -1.257226 -2.466202 137.391083 21.146204 88.832825 -72.228714 137.418976
[null_rope04_connect]
49 -1.259640 -2.480268 -137.844437 21.146282 88.832657 -72.228729 137.872513
50 -1.259640 -2.480268 -137.844437 21.146204 88.832825 -72.228714 137.872513
[Rope3_Seg01]
49 0.000000 0.000000 0.000000 -138.136185 -44.266232 106.863655 0.000000
50 0.000000 0.000000 0.000000 -138.120743 -44.487988 106.756165 0.000000
[Rope3_Seg02]
49 139.999924 -0.000119 0.000060 3.773551 -14.707894 5.594386 139.999924
50 139.999924 -0.000119 0.000060 3.745521 -14.663014 5.634120 139.999924
[Rope3_Seg03]
49 139.999924 -0.000119 0.000119 5.814641 -20.395805 9.914689 139.999924
50 139.999924 -0.000119 0.000119 5.779510 -20.501575 10.038507 139.999924
[Rope3_Seg04]
49 139.999924 0.000119 0.000000 5.017212 -15.760475 10.298244 139.999924
50 139.999924 0.000119 0.000000 5.002939 -15.959084 10.464734 139.999924
[Rope3_Seg05]
49 139.999924 -0.000238 0.000060 4.311389 -14.281567 11.935529 139.999924
50 139.999924 -0.000238 0.000060 4.227755 -14.242419 12.036930 139.999924
[Rope3_Seg06]
49 139.999893 -0.000119 -0.000060 1.904752 -22.792690 24.894966 139.999893
50 139.999893 -0.000119 -0.000060 1.692593 -22.656088 25.046707 139.999893
[Rope3_Seg07]
49 139.999771 0.000060 -0.000119 -0.450620 -13.574434 18.014185 139.999771
50 139.999771 0.000060 -0.000119 -0.619626 -13.589240 18.100334 139.999771
[Rope3_Seg08]
49 139.999985 -0.000060 0.000000 -0.205667 -5.816765 7.976504 139.999985
50 139.999985 -0.000060 0.000000 -0.282301 -5.841228 7.985519 139.999985
[Rope3_Seg09]
49 90.185997 -0.000179 -0.000060 89.793228 -1.359877 -0.847183 90.185997
50 90.185997 -0.000179 -0.000060 89.793228 -1.359877 -0.847183 90.185997
[R_rear_hand01]
49 103.366196 -6.073594 -10.757982 -164.755127 19.627697 -40.352161 104.101845
50 103.366196 -6.073594 -10.757982 -164.755127 19.627697 -40.352161 104.101845
[R_rear_hand02]
49 100.509819 12.039542 -7.992327 -30.792652 24.782448 38.141541 101.543350
50 100.509819 12.039542 -7.992327 -30.792652 24.782448 38.141541 101.543350
[R_rear_hand03]
49 101.539970 5.215704 5.435467 82.448349 -41.048256 8.840378 101.819031
50 101.539970 5.215704 5.435467 82.448349 -41.048256 8.840378 101.819031
[Rope4_Seg01]
49 0.000010 0.000038 -0.000114 61.275322 -42.564133 65.134018 0.000121
50 0.000010 0.000038 -0.000114 61.165009 -42.715210 65.384666 0.000121
[Rope4_Seg02]
49 139.999985 0.000060 0.000119 -4.981467 4.760517 -11.500546 139.999985
50 139.999985 0.000060 0.000119 -4.962852 4.744948 -11.563675 139.999985
[Rope4_Seg03]
49 139.999924 0.000000 -0.000238 -8.105760 8.923355 -17.582170 139.999924
50 139.999924 0.000000 -0.000238 -8.116306 8.913778 -17.718079 139.999924
[Rope4_Seg04]
49 139.999985 0.000000 0.000119 -7.351650 14.495090 -16.725657 139.999985
50 139.999985 0.000000 0.000119 -7.379562 14.555825 -16.860622 139.999985
[Rope4_Seg05]
49 139.999802 -0.000060 -0.000119 -3.781349 9.780232 -14.487523 139.999802
50 139.999802 -0.000060 -0.000119 -3.765086 9.701132 -14.532648 139.999802
[Rope4_Seg06]
49 139.999924 0.000000 0.000060 -6.603539 10.919096 -28.693071 139.999924
50 139.999924 0.000000 0.000060 -6.546270 10.542333 -28.548555 139.999924
[Rope4_Seg07]
49 139.999802 0.000000 0.000000 -5.813383 11.864218 -25.471792 139.999802
50 139.999802 0.000000 0.000000 -5.931209 11.543591 -25.410408 139.999802
[Rope4_Seg08]
49 139.999924 0.000000 0.000119 -2.968618 5.994743 -9.895429 139.999924
50 139.999924 0.000000 0.000119 -3.083021 5.929973 -9.909588 139.999924
[Rope4_Seg09]
49 90.185791 0.000060 0.000060 -135.617828 2.228885 0.850567 90.185791
50 90.185791 0.000060 0.000060 -135.617828 2.228885 0.850567 90.185791
[L_rear_hand01]
49 101.696655 -8.392275 -7.654577 -31.684452 -23.583008 144.025742 102.329041
50 101.696655 -8.392275 -7.654577 -31.684452 -23.583008 144.025742 102.329041
[L_rear_hand02]
49 102.726799 -1.568258 5.773216 82.701553 38.753956 171.553619 102.900848
50 102.726799 -1.568258 5.773216 82.701553 38.753956 171.553619 102.900848
[L_rear_hand03]
49 104.552910 9.721220 -10.420293 -163.975388 -19.004416 -142.009338 105.519653
50 104.552910 9.721220 -10.420293 -163.975403 -19.004421 -142.009338 105.519653
